<?xml version="1.0" encoding="UTF-8"?>
<!DOCTYPE svg PUBLIC "-//W3C//DTD SVG 1.1//EN" "http://www.w3.org/Graphics/SVG/1.1/DTD/svg11.dtd">
<svg xmlns="http://www.w3.org/2000/svg" version="1.1" width="200px" height="290px" style="shape-rendering:geometricPrecision; text-rendering:geometricPrecision; image-rendering:optimizeQuality; fill-rule:evenodd; clip-rule:evenodd" xmlns:xlink="http://www.w3.org/1999/xlink">
<g><path style="opacity:0.397" fill="#515251" d="M 199.5,146.5 C 199.5,150.833 199.5,155.167 199.5,159.5C 189.215,160.606 182.715,166.273 180,176.5C 177.447,187.392 180.947,195.392 190.5,200.5C 190.281,201.938 189.781,203.271 189,204.5C 182.918,211.253 176.252,217.253 169,222.5C 158.76,212.728 147.26,211.228 134.5,218C 133.743,219.512 132.743,220.846 131.5,222C 131.833,222.167 132.167,222.333 132.5,222.5C 137.072,221.146 141.405,219.312 145.5,217C 147.81,216.503 150.143,216.337 152.5,216.5C 152.657,217.873 152.49,219.207 152,220.5C 149.46,222.705 147.293,225.205 145.5,228C 145.544,230.942 147.211,233.109 150.5,234.5C 151.647,236.765 151.814,239.098 151,241.5C 146.748,248.839 142.915,256.339 139.5,264C 137.413,263.953 135.746,262.953 134.5,261C 134.828,258.194 134.328,255.361 133,252.5C 132.059,250.939 130.892,249.605 129.5,248.5C 128.832,255.2 127.999,261.867 127,268.5C 125.757,270.833 124.091,271.5 122,270.5C 121.954,264.889 120.787,259.556 118.5,254.5C 117.029,255.381 116.196,256.714 116,258.5C 115.786,263.885 115.286,269.219 114.5,274.5C 112.389,275.848 110.555,275.515 109,273.5C 107.559,270.953 107.059,268.453 107.5,266C 106.397,262.961 104.897,260.127 103,257.5C 101.761,263.056 101.094,268.722 101,274.5C 96.7486,275.5 93.7486,273.833 92,269.5C 90.5647,264.3 90.398,259.134 91.5,254C 88.162,252.794 86.3287,253.96 86,257.5C 85.6667,262.5 85.3333,267.5 85,272.5C 81.8469,273.402 79.8469,272.069 79,268.5C 78.8622,262.419 78.1956,256.419 77,250.5C 75.6152,251.551 74.6152,252.884 74,254.5C 72.986,258.225 71.8193,261.892 70.5,265.5C 59.0491,257.306 55.0491,246.472 58.5,233C 55.9443,229.622 53.2776,226.455 50.5,223.5C 50.8178,222.353 51.4844,221.519 52.5,221C 55.8333,220.333 59.1667,220.333 62.5,221C 65.9939,222.579 69.3272,224.413 72.5,226.5C 72.1108,221.902 69.4442,218.735 64.5,217C 59.5,216.333 54.5,216.333 49.5,217C 44.9894,220.181 40.4894,223.348 36,226.5C 27.5939,221.426 19.7606,215.593 12.5,209C 13.9443,206.551 15.7776,204.385 18,202.5C 18.9771,199.898 20.1437,197.398 21.5,195C 22.1262,178.813 14.7929,168.313 -0.5,163.5C -0.5,155.5 -0.5,147.5 -0.5,139.5C 21.7674,139.248 42.434,144.415 61.5,155C 47.0776,142.132 30.0776,134.632 10.5,132.5C 10.2539,128.849 10.2539,125.349 10.5,122C 0.528041,107.823 -1.13863,92.656 5.5,76.5C 10.5909,79.4229 15.2576,82.9229 19.5,87C 42.3494,110.35 65.6828,133.183 89.5,155.5C 90.6642,148.858 90.8309,142.192 90,135.5C 65.7532,109.251 40.7532,83.5845 15,58.5C 16.3779,54.147 19.0446,50.4803 23,47.5C 22.1975,50.2403 23.3642,51.907 26.5,52.5C 41.1568,68.3237 55.9901,83.9904 71,99.5C 71.4226,98.0439 72.2559,97.5439 73.5,98C 75.6667,100.833 77.8333,103.667 80,106.5C 81.3607,102.279 82.8607,98.1128 84.5,94C 71.4579,82.6225 58.1246,71.6225 44.5,61C 44.8333,60.5 45.1667,60 45.5,59.5C 47.6047,61.4684 50.1047,62.4684 53,62.5C 59.146,61.4902 65.3127,61.3235 71.5,62C 79.8333,67.5 88.1667,73 96.5,78.5C 99.1244,75.433 100.958,72.0997 102,68.5C 84.1736,55.9196 66.1736,43.5863 48,31.5C 44.502,34.1655 40.6687,36.1655 36.5,37.5C 36.9371,35.9256 37.9371,34.7589 39.5,34C 55.2892,23.7792 72.6226,18.7792 91.5,19C 82.4896,22.8926 73.3229,26.3926 64,29.5C 62.7425,29.8499 62.4092,30.5165 63,31.5C 65.344,33.1813 67.6773,34.848 70,36.5C 74.3869,34.7235 78.5536,32.5568 82.5,30C 84.1667,29.3333 85.8333,29.3333 87.5,30C 101.254,40.4161 114.42,51.5828 127,63.5C 128.787,59.4234 130.954,55.59 133.5,52C 118.803,41.201 105.137,30.201 92.5,19C 101.5,18.3333 110.5,18.3333 119.5,19C 131.008,23.9157 142.675,28.5824 154.5,33C 176.313,47.0999 188.48,66.9333 191,92.5C 192.105,102.677 191.272,112.677 188.5,122.5C 175.833,128.833 163.167,135.167 150.5,141.5C 144.525,145.481 138.858,149.814 133.5,154.5C 133.667,154.833 133.833,155.167 134,155.5C 148.869,146.21 164.702,139.043 181.5,134C 185.77,132.925 190.103,132.425 194.5,132.5C 195.068,137.62 196.734,142.287 199.5,146.5 Z M 140.5,74.5 C 154.396,74.0651 162.062,80.7318 163.5,94.5C 160.748,110.714 151.415,116.548 135.5,112C 123.407,102.961 121.74,92.2942 130.5,80C 133.767,77.8703 137.1,76.037 140.5,74.5 Z M 154.5,117.5 C 155.756,117.461 156.756,117.961 157.5,119C 156.002,119.585 155.002,119.085 154.5,117.5 Z M 168.5,159.5 C 169.873,159.343 171.207,159.51 172.5,160C 171.176,179.365 160.843,191.698 141.5,197C 132.166,199.336 122.832,201.336 113.5,203C 122.942,193.558 132.275,184.225 141.5,175C 150.193,169.105 159.193,163.939 168.5,159.5 Z M 20.5,163.5 C 21.2739,162.853 22.2739,162.52 23.5,162.5C 31.7209,163.296 39.3876,165.796 46.5,170C 59.1058,178.285 70.7725,187.618 81.5,198C 84.3972,199.737 87.3972,201.237 90.5,202.5C 93.1879,201.995 95.3546,200.662 97,198.5C 97.8061,195.554 99.1395,192.888 101,190.5C 101.667,192.5 101.667,194.5 101,196.5C 98.8104,198.388 96.9771,200.555 95.5,203C 92.5,203.667 89.5,203.667 86.5,203C 74.5629,200.628 62.5629,198.628 50.5,197C 36.3219,191.457 30.3219,181.291 32.5,166.5C 28.3219,166.122 24.3219,165.122 20.5,163.5 Z M 100.5,212.5 C 103.785,212.269 106.285,213.603 108,216.5C 112.01,222.571 113.51,229.238 112.5,236.5C 107.541,236.99 104.874,234.656 104.5,229.5C 103.675,228.614 102.675,228.281 101.5,228.5C 100.962,232.041 98.9619,234.375 95.5,235.5C 94.3527,235.182 93.5194,234.516 93,233.5C 92.0554,225.16 94.5554,218.16 100.5,212.5 Z"/></g>
<g><path style="opacity:0.29" fill="#515251" d="M 36.5,37.5 C 42.2592,41.8908 48.2592,46.0574 54.5,50C 55.4506,50.7175 55.6172,51.5509 55,52.5C 48.6007,50.4178 42.1007,48.5845 35.5,47C 33.695,44.5971 31.3616,42.9305 28.5,42C 30.4865,39.283 33.1532,37.783 36.5,37.5 Z"/></g>
<g><path style="opacity:0.004" fill="#515251" d="M 26.5,51.5 C 27.8333,52.1667 27.8333,52.1667 26.5,51.5 Z"/></g>
</svg>
