<?xml version="1.0" encoding="UTF-8"?>
<!DOCTYPE svg PUBLIC "-//W3C//DTD SVG 1.1//EN" "http://www.w3.org/Graphics/SVG/1.1/DTD/svg11.dtd">
<svg opacity=".33" xmlns="http://www.w3.org/2000/svg" version="1.1" width="400px" height="246px" style="shape-rendering:geometricPrecision; text-rendering:geometricPrecision; image-rendering:optimizeQuality; fill-rule:evenodd; clip-rule:evenodd" xmlns:xlink="http://www.w3.org/1999/xlink">
<g><path style="opacity:1" fill="#aaabaa" d="M 198.5,24.5 C 200.335,25.1223 201.502,26.4556 202,28.5C 207.371,41.4065 212.871,54.2398 218.5,67C 212.3,65.7472 205.967,64.9139 199.5,64.5C 193.033,64.9139 186.7,65.7472 180.5,67C 186.917,53.0003 192.917,38.8336 198.5,24.5 Z M 198.5,28.5 C 199.497,28.4701 200.164,28.9701 200.5,30C 205.234,41.4661 210.234,52.7994 215.5,64C 210.204,63.6208 204.871,63.1208 199.5,62.5C 194.129,63.1208 188.796,63.6208 183.5,64C 189.199,52.4381 194.199,40.6047 198.5,28.5 Z"/></g>
<g><path style="opacity:1" fill="#aaabaa" d="M 134.5,50.5 C 149.064,56.1149 163.397,62.2816 177.5,69C 165.333,74.5 156.5,83.3333 151,95.5C 144.923,80.6856 139.423,65.6856 134.5,50.5 Z M 137.5,53.5 C 149.598,58.0515 161.264,63.3848 172.5,69.5C 163.2,74.2998 156.033,81.2998 151,90.5C 146.001,78.3347 141.501,66.0013 137.5,53.5 Z"/></g>
<g><path style="opacity:1" fill="#aaabaa" d="M 261.5,50.5 C 262.5,50.5 263.5,50.5 264.5,50.5C 259.577,65.6856 254.077,80.6856 248,95.5C 242.5,83.3333 233.667,74.5 221.5,69C 235.013,63.0747 248.346,56.908 261.5,50.5 Z M 259.5,53.5 C 260.376,53.3691 261.043,53.7025 261.5,54.5C 257.278,66.6096 252.778,78.6096 248,90.5C 242.967,81.2998 235.8,74.2998 226.5,69.5C 237.373,63.8967 248.373,58.5634 259.5,53.5 Z"/></g>
<g><path style="opacity:1" fill="#aaabaa" d="M 194.5,69.5 C 217.505,69.3779 234.338,79.3779 245,99.5C 252.916,127.093 244.416,147.927 219.5,162C 188.515,171.898 166.348,162.065 153,132.5C 146.805,98.2071 160.639,77.2071 194.5,69.5 Z"/></g>
<g><path style="opacity:1" fill="#aaabaa" d="M 146.5,99.5 C 147.649,99.7911 148.316,100.624 148.5,102C 145.833,113 145.833,124 148.5,135C 148.167,135.833 147.833,136.667 147.5,137.5C 133.705,131.436 120.038,125.102 106.5,118.5C 119.916,112.123 133.249,105.79 146.5,99.5 Z M 144.5,102.5 C 145.478,102.811 146.145,103.478 146.5,104.5C 145.501,109.155 144.501,113.821 143.5,118.5C 144.501,123.179 145.501,127.845 146.5,132.5C 146.192,133.308 145.692,133.975 145,134.5C 133.666,129.584 122.5,124.251 111.5,118.5C 122.469,112.847 133.469,107.514 144.5,102.5 Z"/></g>
<g><path style="opacity:1" fill="#aaabaa" d="M 250.5,99.5 C 264.725,105.278 278.725,111.611 292.5,118.5C 278.962,125.102 265.295,131.436 251.5,137.5C 251.167,136.667 250.833,135.833 250.5,135C 253.074,123.168 253.074,111.335 250.5,99.5 Z M 253.5,102.5 C 265.049,107.273 276.382,112.606 287.5,118.5C 276.5,124.251 265.334,129.584 254,134.5C 253.308,133.975 252.808,133.308 252.5,132.5C 253.499,127.845 254.499,123.179 255.5,118.5C 254.499,113.821 253.499,109.155 252.5,104.5C 252.863,103.817 253.196,103.15 253.5,102.5 Z"/></g>
<g><path style="opacity:1" fill="#aaabaa" d="M 92.5,105.5 C 95.3682,117.616 95.8682,129.949 94,142.5C 85.8682,130.527 85.3682,118.193 92.5,105.5 Z"/></g>
<g><path style="opacity:1" fill="#aaabaa" d="M 305.5,105.5 C 313.665,117.879 313.499,130.213 305,142.5C 304.377,138.014 303.877,133.514 303.5,129C 304.424,121.183 305.091,113.35 305.5,105.5 Z"/></g>
<g><path style="opacity:1" fill="#aaabaa" d="M 99.5,126.5 C 101.163,128.493 102.33,130.826 103,133.5C 103.396,145.605 103.063,157.605 102,169.5C 97.3665,163.865 92.3665,158.532 87,153.5C 82.3929,145.928 81.3929,137.928 84,129.5C 84.2565,133.377 85.2565,137.043 87,140.5C 91.4464,147.058 95.1131,154.058 98,161.5C 97.4521,149.823 97.9521,138.156 99.5,126.5 Z"/></g>
<g><path style="opacity:1" fill="#aaabaa" d="M 298.5,126.5 C 299.275,132.03 300.109,137.697 301,143.5C 301.471,149.538 301.471,155.538 301,161.5C 303.887,154.058 307.554,147.058 312,140.5C 313.743,137.043 314.743,133.377 315,129.5C 317.607,137.928 316.607,145.928 312,153.5C 306.633,158.532 301.633,163.865 297,169.5C 297.017,160.715 296.517,151.882 295.5,143C 295.09,137.202 296.09,131.702 298.5,126.5 Z"/></g>
<g><path style="opacity:1" fill="#aaabaa" d="M 150.5,142.5 C 157.706,151.864 166.039,160.197 175.5,167.5C 162.41,173.589 149.243,179.589 136,185.5C 135.5,185.167 135,184.833 134.5,184.5C 140.033,170.565 145.367,156.565 150.5,142.5 Z M 151.5,146.5 C 153.752,149.932 156.252,153.266 159,156.5C 163.167,160 167.333,163.5 171.5,167C 160.324,172.604 148.991,177.604 137.5,182C 142.069,170.126 146.736,158.293 151.5,146.5 Z"/></g>
<g><path style="opacity:1" fill="#aaabaa" d="M 246.5,142.5 C 247.75,142.577 248.583,143.244 249,144.5C 254.072,157.884 259.238,171.217 264.5,184.5C 264,184.833 263.5,185.167 263,185.5C 249.757,179.589 236.59,173.589 223.5,167.5C 227.979,164.081 232.312,160.414 236.5,156.5C 240.834,152.479 244.168,147.812 246.5,142.5 Z M 246.5,146.5 C 249.148,150.462 251.315,154.796 253,159.5C 255.645,167.106 258.478,174.606 261.5,182C 250.009,177.604 238.676,172.604 227.5,167C 235.765,161.904 242.098,155.071 246.5,146.5 Z"/></g>
<g><path style="opacity:1" fill="#aaabaa" d="M 117.5,191.5 C 106.937,187.635 97.7707,181.635 90,173.5C 86.1939,168.412 84.1939,162.746 84,156.5C 90.6667,164.5 98,171.833 106,178.5C 107.667,180.833 109.333,183.167 111,185.5C 110.016,181.835 108.683,178.168 107,174.5C 106.144,166.768 106.477,159.102 108,151.5C 109.725,154.674 111.058,158.007 112,161.5C 113.232,171.633 115.066,181.633 117.5,191.5 Z"/></g>
<g><path style="opacity:1" fill="#aaabaa" d="M 281.5,191.5 C 283.934,181.633 285.768,171.633 287,161.5C 287.942,158.007 289.275,154.674 291,151.5C 292.523,159.102 292.856,166.768 292,174.5C 290.317,178.168 288.984,181.835 288,185.5C 289.667,183.167 291.333,180.833 293,178.5C 301,171.833 308.333,164.5 315,156.5C 313.735,167.844 308.235,176.677 298.5,183C 292.78,185.86 287.114,188.693 281.5,191.5 Z"/></g>
<g><path style="opacity:1" fill="#aaabaa" d="M 180.5,169.5 C 180.735,168.903 181.235,168.57 182,168.5C 187.669,170.417 193.502,171.417 199.5,171.5C 205.967,171.086 212.3,170.253 218.5,169C 212.033,183.435 205.7,197.935 199.5,212.5C 193.396,197.968 187.063,183.635 180.5,169.5 Z M 183.5,172.5 C 183.917,171.876 184.584,171.543 185.5,171.5C 190.104,172.601 194.771,173.267 199.5,173.5C 204.871,172.879 210.204,172.379 215.5,172C 210.033,183.768 204.7,195.601 199.5,207.5C 194.396,195.632 189.063,183.966 183.5,172.5 Z"/></g>
<g><path style="opacity:1" fill="#aaabaa" d="M 119.5,174.5 C 127.151,183.777 133.317,194.11 138,205.5C 139.458,207.96 141.291,210.127 143.5,212C 124.66,212.996 109.826,205.829 99,190.5C 98.3123,189.668 98.479,189.002 99.5,188.5C 106.79,192.992 114.456,196.825 122.5,200C 125.167,202 127.833,204 130.5,206C 132.402,207.301 134.402,207.968 136.5,208C 130.23,204.053 125.73,198.553 123,191.5C 121.383,185.914 120.216,180.247 119.5,174.5 Z"/></g>
<g><path style="opacity:1" fill="#aaabaa" d="M 278.5,174.5 C 279.261,188.482 273.927,199.648 262.5,208C 264.598,207.968 266.598,207.301 268.5,206C 271.167,204 273.833,202 276.5,200C 284.544,196.825 292.21,192.992 299.5,188.5C 300.521,189.002 300.688,189.668 300,190.5C 289.174,205.829 274.34,212.996 255.5,212C 261.802,203.906 266.968,195.073 271,185.5C 273.51,181.805 276.01,178.138 278.5,174.5 Z"/></g>
<g><path style="opacity:1" fill="#f3f5f5" d="M 117.5,191.5 C 118.833,192.167 118.833,192.167 117.5,191.5 Z"/></g>
<g><path style="opacity:1" fill="#f3f5f5" d="M 281.5,191.5 C 280.833,192.167 280.833,192.167 281.5,191.5 Z"/></g>
<g><path style="opacity:1" fill="#aaabaa" d="M 137.5,194.5 C 138.721,193.535 140.054,193.702 141.5,195C 149.796,201.627 157.796,208.627 165.5,216C 169.007,218.254 172.673,220.254 176.5,222C 164.007,225.174 151.341,226.174 138.5,225C 131.085,223.128 124.752,219.462 119.5,214C 121.823,214.306 124.156,214.972 126.5,216C 139.257,217.003 151.924,218.337 164.5,220C 156.898,217.95 150.731,213.783 146,207.5C 143.64,202.76 140.807,198.426 137.5,194.5 Z"/></g>
<g><path style="opacity:1" fill="#aaabaa" d="M 259.5,193.5 C 260.239,193.369 260.906,193.536 261.5,194C 257.137,201.719 251.804,208.719 245.5,215C 241.952,216.941 238.286,218.607 234.5,220C 247.076,218.337 259.743,217.003 272.5,216C 274.844,214.972 277.177,214.306 279.5,214C 267.925,224.963 254.258,228.629 238.5,225C 233.143,224.129 227.809,223.129 222.5,222C 226.327,220.254 229.993,218.254 233.5,216C 241.769,207.888 250.435,200.388 259.5,193.5 Z"/></g>
</svg>
