<?xml version="1.0" encoding="UTF-8"?>
<!DOCTYPE svg PUBLIC "-//W3C//DTD SVG 1.1//EN" "http://www.w3.org/Graphics/SVG/1.1/DTD/svg11.dtd">
<svg xmlns="http://www.w3.org/2000/svg" version="1.1" width="626px" height="626px" style="shape-rendering:geometricPrecision; text-rendering:geometricPrecision; image-rendering:optimizeQuality; fill-rule:evenodd; clip-rule:evenodd" xmlns:xlink="http://www.w3.org/1999/xlink">
<g><path style="opacity:0.25" fill="#aaabaa" d="M 429.5,135.5 C 448.833,135.5 468.167,135.5 487.5,135.5C 487.667,155.836 487.5,176.169 487,196.5C 486.333,197.833 485.667,199.167 485,200.5C 481.927,201.617 478.76,201.784 475.5,201C 474.54,199.581 473.707,198.081 473,196.5C 472.667,187.167 472.333,177.833 472,168.5C 470.23,167.724 468.397,167.89 466.5,169C 450.699,183.133 435.199,197.633 420,212.5C 419.649,216.752 420.982,220.419 424,223.5C 441.409,265.207 433.576,301.374 400.5,332C 393.344,335.607 386.344,339.44 379.5,343.5C 366.349,374.645 343.016,392.645 309.5,397.5C 309.5,414.5 309.5,431.5 309.5,448.5C 325.503,448.333 341.503,448.5 357.5,449C 362.745,452.97 363.745,457.803 360.5,463.5C 358.869,465.297 356.869,466.464 354.5,467C 339.504,467.5 324.504,467.667 309.5,467.5C 309.667,479.171 309.5,490.838 309,502.5C 306.193,509.392 301.36,511.225 294.5,508C 292.513,506.681 291.346,504.848 291,502.5C 290.5,490.838 290.333,479.171 290.5,467.5C 275.496,467.667 260.496,467.5 245.5,467C 238.302,464.437 236.136,459.604 239,452.5C 240.167,451.333 241.333,450.167 242.5,449C 258.497,448.5 274.497,448.333 290.5,448.5C 290.5,431.5 290.5,414.5 290.5,397.5C 254.894,392.732 231.061,373.398 219,339.5C 208.736,301.036 218.902,269.202 249.5,244C 255.966,239.433 262.966,235.933 270.5,233.5C 280.964,207.541 299.631,190.374 326.5,182C 333.942,180.76 341.442,179.927 349,179.5C 368.735,179.631 386.235,185.797 401.5,198C 403.897,199.724 406.231,199.724 408.5,198C 425.612,183.724 441.945,168.557 457.5,152.5C 457.291,151.914 456.957,151.414 456.5,151C 447.5,150.667 438.5,150.333 429.5,150C 428.167,149.333 426.833,148.667 425.5,148C 424.383,144.927 424.216,141.76 425,138.5C 426.652,137.601 428.152,136.601 429.5,135.5 Z M 344.5,196.5 C 378.13,196.657 400.963,212.324 413,243.5C 420.031,272.409 412.531,296.909 390.5,317C 388.667,318.167 386.833,319.333 385,320.5C 386.013,280.349 368.513,251.516 332.5,234C 319.912,229.402 306.912,227.069 293.5,227C 306.149,209.029 323.149,198.863 344.5,196.5 Z M 294.5,246.5 C 332.185,246.749 355.685,265.082 365,301.5C 365.853,310.886 365.519,320.219 364,329.5C 331.974,334.938 307.307,323.938 290,296.5C 282.259,281.239 280.093,265.239 283.5,248.5C 287.36,248.192 291.026,247.525 294.5,246.5 Z M 262.5,257.5 C 266.719,314.385 297.385,345.052 354.5,349.5C 340.016,370.241 320.016,380.075 294.5,379C 264.337,375.174 244.837,358.674 236,329.5C 230.324,300.017 239.157,276.017 262.5,257.5 Z"/></g>
</svg>
